<mxfile host="debug996.com" modified="2025-04-08T08:37:16.968Z" agent="5.0 (Windows NT 10.0; Win64; x64) AppleWebKit/537.36 (KHTML, like Gecko) Chrome/135.0.0.0 Safari/537.36 Edg/135.0.0.0" etag="5W5GWktSuoIB0ZlaeGZc" version="15.0.3" type="device">
  <diagram id="4ZyxKnKJMh4BaUEmrDDP" name="第 1 页">
    <mxGraphModel dx="1201" dy="813" grid="1" gridSize="10" guides="1" tooltips="1" connect="1" arrows="1" fold="1" page="1" pageScale="1" pageWidth="827" pageHeight="1169" math="0" shadow="0">
      <root>
        <mxCell id="0" />
        <mxCell id="1" parent="0" />
        <mxCell id="原始数据" value="原始数据" style="rounded=0;whiteSpace=wrap;html=1;strokeWidth=2;" parent="1" vertex="1">
          <mxGeometry x="292" y="30" width="58" height="36" as="geometry" />
        </mxCell>
        <mxCell id="核函数映射" value="核函数映射" style="rounded=0;whiteSpace=wrap;html=1;strokeWidth=2;" parent="1" vertex="1">
          <mxGeometry x="433.46002" y="30" width="68.5" height="36" as="geometry" />
        </mxCell>
        <mxCell id="E0" style="strokeWidth=2;" parent="1" source="原始数据" target="核函数映射" edge="1">
          <mxGeometry relative="1" as="geometry" />
        </mxCell>
        <mxCell id="L0" value="RBF变换" style="edgeLabel;html=1;align=center;verticalAlign=middle;resizable=0;points=[];" parent="E0" vertex="1" connectable="0">
          <mxGeometry relative="1" as="geometry">
            <mxPoint as="offset" />
          </mxGeometry>
        </mxCell>
        <mxCell id="高维平面" value="高维平面" style="rounded=0;whiteSpace=wrap;html=1;strokeWidth=2;" parent="1" vertex="1">
          <mxGeometry x="579.95996" y="30" width="58" height="36" as="geometry" />
        </mxCell>
        <mxCell id="E1" style="strokeWidth=2;" parent="1" source="核函数映射" target="高维平面" edge="1">
          <mxGeometry relative="1" as="geometry" />
        </mxCell>
        <mxCell id="L1" value="线性分割" style="edgeLabel;html=1;align=center;verticalAlign=middle;resizable=0;points=[];" parent="E1" vertex="1" connectable="0">
          <mxGeometry relative="1" as="geometry">
            <mxPoint as="offset" />
          </mxGeometry>
        </mxCell>
        <mxCell id="支持向量" value="支持向量" style="rounded=0;whiteSpace=wrap;html=1;strokeWidth=2;" parent="1" vertex="1">
          <mxGeometry x="726.45996" y="30" width="58" height="36" as="geometry" />
        </mxCell>
        <mxCell id="E2" style="strokeWidth=2;" parent="1" source="高维平面" target="支持向量" edge="1">
          <mxGeometry relative="1" as="geometry" />
        </mxCell>
        <mxCell id="L2" value="选择边界点" style="edgeLabel;html=1;align=center;verticalAlign=middle;resizable=0;points=[];" parent="E2" vertex="1" connectable="0">
          <mxGeometry relative="1" as="geometry">
            <mxPoint as="offset" />
          </mxGeometry>
        </mxCell>
        <mxCell id="超平面" value="超平面" style="rounded=0;whiteSpace=wrap;html=1;strokeWidth=2;" parent="1" vertex="1">
          <mxGeometry x="862.46002" y="30" width="54" height="36" as="geometry" />
        </mxCell>
        <mxCell id="E3" style="strokeWidth=2;" parent="1" source="支持向量" target="超平面" edge="1">
          <mxGeometry relative="1" as="geometry" />
        </mxCell>
        <mxCell id="L3" value="确定位置" style="edgeLabel;html=1;align=center;verticalAlign=middle;resizable=0;points=[];" parent="E3" vertex="1" connectable="0">
          <mxGeometry relative="1" as="geometry">
            <mxPoint as="offset" />
          </mxGeometry>
        </mxCell>
        <mxCell id="间隔优化" value="间隔优化" style="rounded=0;whiteSpace=wrap;html=1;strokeWidth=2;" parent="1" vertex="1">
          <mxGeometry x="1004.96" y="30" width="58" height="36" as="geometry" />
        </mxCell>
        <mxCell id="E4" style="strokeWidth=2;" parent="1" source="超平面" target="间隔优化" edge="1">
          <mxGeometry relative="1" as="geometry" />
        </mxCell>
        <mxCell id="L4" value="最大化宽度" style="edgeLabel;html=1;align=center;verticalAlign=middle;resizable=0;points=[];" parent="E4" vertex="1" connectable="0">
          <mxGeometry relative="1" as="geometry">
            <mxPoint as="offset" />
          </mxGeometry>
        </mxCell>
      </root>
    </mxGraphModel>
  </diagram>
</mxfile>
